<?xml version="1.0" encoding="utf-8"?>
<!-- Generator: Adobe Illustrator 24.0.1, SVG Export Plug-In . SVG Version: 6.00 Build 0)  -->
<svg version="1.1" id="Capa_1" xmlns="http://www.w3.org/2000/svg" xmlns:xlink="http://www.w3.org/1999/xlink" x="0px" y="0px"
	 viewBox="0 0 231.5 231.5" style="enable-background:new 0 0 231.5 231.5;" xml:space="preserve">
<style type="text/css">
	.st0{fill:none;}
</style>
<g>
	<path class="st0" d="M96.3,200.1c-4.5,0-8.2,3.7-8.2,8.2c0,4.5,3.7,8.2,8.2,8.2c4.5,0,8.2-3.7,8.2-8.2
		C104.5,203.8,100.8,200.1,96.3,200.1z"/>
	<path class="st0" d="M173.7,200.1c-4.5,0-8.2,3.7-8.2,8.2c0,4.5,3.7,8.2,8.2,8.2c4.5,0,8.2-3.7,8.2-8.2
		C181.9,203.8,178.3,200.1,173.7,200.1z"/>
	<path d="M96.3,185.1c-12.8,0-23.2,10.4-23.2,23.2c0,12.8,10.4,23.2,23.2,23.2c12.8,0,23.2-10.4,23.2-23.2
		C119.5,195.5,109.1,185.1,96.3,185.1z M96.3,216.5c-4.5,0-8.2-3.7-8.2-8.2c0-4.5,3.7-8.2,8.2-8.2c4.5,0,8.2,3.7,8.2,8.2
		C104.5,212.8,100.8,216.5,96.3,216.5z"/>
	<path d="M173.7,185.1c-12.8,0-23.2,10.4-23.2,23.2c0,12.8,10.4,23.2,23.2,23.2s23.2-10.4,23.2-23.2
		C196.9,195.5,186.5,185.1,173.7,185.1z M173.7,216.5c-4.5,0-8.2-3.7-8.2-8.2c0-4.5,3.7-8.2,8.2-8.2c4.5,0,8.2,3.7,8.2,8.2
		C181.9,212.8,178.3,216.5,173.7,216.5z"/>
	<path d="M63.2,76.2L56.9,52c-0.9-3.3-3.8-5.6-7.3-5.6H19.2c-4.1,0-7.7,3.2-7.8,7.3c-0.1,4.2,3.3,7.7,7.5,7.7h24.9L50,85.4
		c0,0.1,0.1,0.3,0.1,0.4l23.2,89c0.9,3.3,3.8,5.6,7.3,5.6h108.9c3.4,0,6.4-2.3,7.3-5.6l23.2-89.3c0.6-2.2,0.1-4.6-1.3-6.5
		c-0.8-1-3.4-1.8-6-2.3c-3-0.6-5.9,1.2-6.7,4.1l-2.9,10.3l-19.3,74.3H86.4L63.2,76.2"/>
	<path d="M105.6,81.8c1.5,1.5,3.4,2.2,5.3,2.2c1.9,0,3.8-0.7,5.3-2.2c2.9-2.9,2.9-7.7,0-10.6L92.6,47.7c-2.9-2.9-7.7-2.9-10.6,0
		c-2.9,2.9-2.9,7.7,0,10.6L105.6,81.8z"/>
	<path d="M159.2,84c1.9,0,3.8-0.7,5.3-2.2L188,58.3c2.9-2.9,2.9-7.7,0-10.6c-2.9-2.9-7.7-2.9-10.6,0l-23.6,23.6
		c-2.9,2.9-2.9,7.7,0,10.6C155.3,83.3,157.3,84,159.2,84z"/>
	<path d="M135,77.3C135,77.3,135,77.3,135,77.3c4.1,0,7.5-3.4,7.5-7.5l0-33.3c0-4.1-3.4-7.5-7.5-7.5c0,0,0,0,0,0
		c-4.1,0-7.5,3.4-7.5,7.5l0,33.3C127.5,73.9,130.9,77.3,135,77.3z"/>
</g>
<path d="M355.4-21.2c0,17.7-14.4,32.1-32.1,32.1s-32.1-14.4-32.1-32.1s14.4-32.1,32.1-32.1S355.4-38.9,355.4-21.2z M323.3-40.9
	c-10.9,0-19.7,8.8-19.7,19.7s8.8,19.7,19.7,19.7s19.7-8.8,19.7-19.7S334.2-40.9,323.3-40.9z"/>
</svg>
