<svg xmlns="https://www.w3.org/2000/svg" width="43.279" height="43.279" viewBox="0 0 43.279 43.279"><defs><style>.a{fill:#4267b2;}.b{fill:#fff;}</style></defs><path class="a" d="M40.89,0H2.387A2.388,2.388,0,0,0,0,2.389v38.5a2.388,2.388,0,0,0,2.389,2.387h38.5a2.388,2.388,0,0,0,2.389-2.388h0V2.387A2.388,2.388,0,0,0,40.89,0Zm0,0" transform="translate(0 0)"/><path class="b" d="M219.234,113.622V97.088h5.574l.835-6.472h-6.409V86.494c0-1.869.519-3.143,3.2-3.143h3.4V77.579a45.669,45.669,0,0,0-4.979-.254c-4.927,0-8.3,3.006-8.3,8.529v4.763H207v6.472h5.553v16.534Zm0,0" transform="translate(-189.336 -70.343)"/></svg>