<svg id="Capa_2" data-name="Capa 2" xmlns="http://www.w3.org/2000/svg" width="764.5" height="213.52" viewBox="0 0 764.5 213.52">
  <g id="Capa_1" data-name="Capa 1">
    <path id="Trazado_103" data-name="Trazado 103" d="M245.16,188.73a12.14,12.14,0,0,1-5.61-1.32,4.17,4.17,0,0,1-2.58-3.85V104.84c0-3,.86-5.14,2.58-6.36a9.5,9.5,0,0,1,5.61-1.83,17.83,17.83,0,0,1,5.1.63,9.16,9.16,0,0,1,3.91,2.52,27.2,27.2,0,0,1,3.84,5.54l15.36,28.22,15.5-28.22a41,41,0,0,1,4-5.54,8.34,8.34,0,0,1,3.85-2.52,17.88,17.88,0,0,1,5-.63,9.41,9.41,0,0,1,5.66,1.83c1.68,1.22,2.52,3.33,2.52,6.36v78.72a4.17,4.17,0,0,1-2.58,3.85,12.56,12.56,0,0,1-11.21,0,4.17,4.17,0,0,1-2.58-3.85V129.4l-14.61,26.2a6.413,6.413,0,0,1-8.51,2.58,6.36,6.36,0,0,1-2.58-2.58l-14.48-27.21v55.17a4.18,4.18,0,0,1-2.52,3.85,12,12,0,0,1-5.67,1.32Z" fill="#021f5e"/>
    <path id="Trazado_104" data-name="Trazado 104" d="M332.2,188.73a9.63,9.63,0,0,1-4.92-1.32,4.22,4.22,0,0,1-2.26-3.85V101.81A4.21,4.21,0,0,1,327.28,98a9.63,9.63,0,0,1,4.92-1.32H377a4.15,4.15,0,0,1,4,2.27,10.19,10.19,0,0,1,1.19,4.78,9.67,9.67,0,0,1-1.32,5.17A4.24,4.24,0,0,1,377,111H341.39v25.2h19.15a4.35,4.35,0,0,1,3.84,2,8,8,0,0,1,1.32,4.6,8.42,8.42,0,0,1-1.19,4.22,4.22,4.22,0,0,1-4,2.08H341.39v25.32H377a4.24,4.24,0,0,1,3.84,2.14,9.66,9.66,0,0,1,1.32,5.16,10.18,10.18,0,0,1-1.19,4.79,4.15,4.15,0,0,1-4,2.27Z" fill="#021f5e"/>
    <path id="Trazado_105" data-name="Trazado 105" d="M442.29,189.36a5.89,5.89,0,0,1-3.21-1,6.71,6.71,0,0,1-2.46-2.9L418.73,150.7H408.15v32.87a4.18,4.18,0,0,1-2.52,3.85,12.69,12.69,0,0,1-11.27,0,4.17,4.17,0,0,1-2.58-3.85V101.69a4.94,4.94,0,0,1,1.45-3.53,5,5,0,0,1,3.84-1.51H422A44.87,44.87,0,0,1,437.06,99a21.78,21.78,0,0,1,10.77,8.13q4,5.73,4,15.81a32,32,0,0,1-2.14,12.4,21,21,0,0,1-5.86,8.19,24.921,24.921,0,0,1-8.5,4.6L452,178.78a4.66,4.66,0,0,1,.37,1.07,4.17,4.17,0,0,1,.13.94,6.66,6.66,0,0,1-1.51,4,11.651,11.651,0,0,1-3.84,3.28,10.08,10.08,0,0,1-4.86,1.29Zm-34.14-51.52H422q6.17,0,9.82-3t3.66-10.33q0-7.56-3.66-10.52T422,111H408.15Z" fill="#021f5e"/>
    <path id="Trazado_106" data-name="Trazado 106" d="M491.41,189.49a36.63,36.63,0,0,1-14.48-2.84,22.46,22.46,0,0,1-10.59-9.2q-3.9-6.34-3.9-16.81V125.5q0-10.45,3.9-16.82a22.52,22.52,0,0,1,10.59-9.2,37.17,37.17,0,0,1,14.61-2.83,38.38,38.38,0,0,1,15.55,3,25.29,25.29,0,0,1,10.59,8.25,21.08,21.08,0,0,1,3.84,12.72c0,3.28-.68,5.44-2,6.49s-3.4,1.57-6.17,1.57a12.4,12.4,0,0,1-5.73-1.19,4.35,4.35,0,0,1-2.46-4,18,18,0,0,0-.44-3.59,12.59,12.59,0,0,0-1.7-4.09,9.83,9.83,0,0,0-3.84-3.4A15.13,15.13,0,0,0,492,111q-6.42,0-9.89,3.59t-3.46,10.9v35.14q0,7.43,3.53,11t10.07,3.52a14.23,14.23,0,0,0,6.81-1.38,9.38,9.38,0,0,0,3.71-3.46,14.211,14.211,0,0,0,1.64-4.35c.29-1.51.52-2.94.69-4.28a4.6,4.6,0,0,1,2.52-4,12.24,12.24,0,0,1,5.54-1.14q4.29,0,6.3,1.64c1.34,1.09,2,3.23,2,6.42a23,23,0,0,1-3.84,13.23A24.55,24.55,0,0,1,507,186.46a38,38,0,0,1-15.59,3.03Z" fill="#021f5e"/>
    <path id="Trazado_107" data-name="Trazado 107" d="M532.47,188.73a6,6,0,0,1-2.14-.44,5,5,0,0,1-1.89-1.26,2.66,2.66,0,0,1-.75-1.83,2.631,2.631,0,0,1,.13-.88l26.32-85.53a3.66,3.66,0,0,1,1.89-2.2,6.671,6.671,0,0,1,3-.69,6.91,6.91,0,0,1,3.22.75,3.38,3.38,0,0,1,1.82,2.14l26.2,85.53a2.481,2.481,0,0,1,.13.76,2.59,2.59,0,0,1-.76,1.82,5.439,5.439,0,0,1-1.89,1.32,5.73,5.73,0,0,1-2.39.51,3.72,3.72,0,0,1-1.89-.51,2.32,2.32,0,0,1-1.13-1.63l-5.92-19.4H541.67l-5.79,19.4a2.86,2.86,0,0,1-1.26,1.63,4.25,4.25,0,0,1-2.15.51ZM543.69,160h30.6l-15.24-50.76Z" fill="#021f5e"/>
    <path id="Trazado_108" data-name="Trazado 108" d="M615.86,188.73a5.18,5.18,0,0,1-2.9-.82,2.76,2.76,0,0,1-1.26-2.46v-81H590.54a2.67,2.67,0,0,1-2.33-1.2,4.87,4.87,0,0,1,0-5.41,2.67,2.67,0,0,1,2.33-1.2h50.51a2.68,2.68,0,0,1,2.4,1.14,4.65,4.65,0,0,1,.75,2.64,5.31,5.31,0,0,1-.75,2.77,2.6,2.6,0,0,1-2.4,1.26H620v81a2.7,2.7,0,0,1-1.32,2.46A5.29,5.29,0,0,1,615.86,188.73Z" fill="#021f5e"/>
    <path id="Trazado_109" data-name="Trazado 109" d="M675.94,188.73a5.15,5.15,0,0,1-2.89-.82,2.74,2.74,0,0,1-1.26-2.46v-81H650.63a2.64,2.64,0,0,1-2.33-1.2,4.87,4.87,0,0,1,0-5.41,2.64,2.64,0,0,1,2.33-1.2h50.51a2.66,2.66,0,0,1,2.39,1.14,4.65,4.65,0,0,1,.76,2.64,5.319,5.319,0,0,1-.76,2.77,2.58,2.58,0,0,1-2.39,1.26h-21v81a2.7,2.7,0,0,1-1.32,2.46,5.27,5.27,0,0,1-2.88.82Z" fill="#021f5e"/>
    <path id="Trazado_110" data-name="Trazado 110" d="M738.17,189.49a32.16,32.16,0,0,1-13.23-2.65,20.31,20.31,0,0,1-9.38-8.57q-3.46-5.91-3.46-15.74v-39q0-9.69,3.46-15.62a20.35,20.35,0,0,1,9.32-8.56,31.86,31.86,0,0,1,13.29-2.65,32.3,32.3,0,0,1,13.35,2.65,20.59,20.59,0,0,1,9.45,8.56q3.53,5.92,3.53,15.62v39.05q0,9.83-3.53,15.74a20.61,20.61,0,0,1-9.45,8.57,32.46,32.46,0,0,1-13.35,2.6Zm0-7.69q8.43,0,13.23-4.66t4.78-14.61v-39q0-9.83-4.78-14.49t-13.23-4.66q-8.45,0-13.1,4.66t-4.66,14.49v39.05q0,9.94,4.66,14.61T738.17,181.8Z" fill="#021f5e"/>
    <path id="Trazado_111" data-name="Trazado 111" d="M40.8,126H13.5l2,20.85H42Z" fill="#021f5e"/>
    <path id="Trazado_112" data-name="Trazado 112" d="M171.53,146.8H198l2-20.8H172.72Z" fill="#021f5e"/>
    <path id="Trazado_113" data-name="Trazado 113" d="M131.88,180.16h25.21l1.2-20.85h-26Z" fill="#021f5e"/>
    <path id="Trazado_114" data-name="Trazado 114" d="M81.24,159.31h-26l1.19,20.85H81.64Z" fill="#021f5e"/>
    <path id="Trazado_115" data-name="Trazado 115" d="M169.63,180.16h25.23l2-20.85h-26Z" fill="#021f5e"/>
    <path id="Trazado_116" data-name="Trazado 116" d="M42.71,159.31h-26l2,20.85H43.9Z" fill="#021f5e"/>
    <path id="Trazado_117" data-name="Trazado 117" d="M57.14,192.67l1.2,20.85H82.27l-.39-20.85Z" fill="#021f5e"/>
    <path id="Trazado_118" data-name="Trazado 118" d="M19.85,192.67v.09a22.84,22.84,0,0,0,22.83,20.76H45.8l-1.19-20.85Z" fill="#021f5e"/>
    <path id="Trazado_119" data-name="Trazado 119" d="M167.72,213.52h3.11a22.83,22.83,0,0,0,22.83-20.76v-.09H168.91Z" fill="#021f5e"/>
    <path id="Trazado_120" data-name="Trazado 120" d="M131.25,213.52h23.94l1.19-20.85H131.65Z" fill="#021f5e"/>
    <path id="Trazado_121" data-name="Trazado 121" d="M94.79,213.52h23.95l.39-20.85H94.39Z" fill="#021f5e"/>
    <path id="Trazado_122" data-name="Trazado 122" d="M81,144,63,126H53.33l1.19,20.85H81Z" fill="#021f5e"/>
    <path id="Trazado_123" data-name="Trazado 123" d="M132.57,144v2.81H159L160.19,126h-9.57Z" fill="#021f5e"/>
    <path id="Trazado_124" data-name="Trazado 124" d="M115.61,161a12.52,12.52,0,0,1-17.69,0l-1.65-1.65H93.76l.39,20.85h25.22l.4-20.85h-2.52Z" fill="#021f5e"/>
    <path id="Trazado_125" data-name="Trazado 125" d="M170.46,88.41H43.07l63.69,63.7Z" fill="#021f5e"/>
    <path id="Trazado_126" data-name="Trazado 126" d="M6.26,88.41A6.26,6.26,0,0,0,0,94.67v12.51a6.25,6.25,0,0,0,6.26,6.25H50.39l-25-25Z" fill="#021f5e"/>
    <path id="Trazado_127" data-name="Trazado 127" d="M207.27,88.41H188.15l-25,25h44.14a6.25,6.25,0,0,0,6.25-6.25V94.67a6.25,6.25,0,0,0-6.27-6.26Z" fill="#021f5e"/>
    <path id="Trazado_128" data-name="Trazado 128" d="M125.53,10.43A10.44,10.44,0,0,0,115.1,0H98.42A10.43,10.43,0,0,0,88,10.43V75.9h37.53Z" fill="#021f5e"/>
  </g>
</svg>
