<svg id="Componente_4_1" data-name="Componente 4 – 1" xmlns="http://www.w3.org/2000/svg" xmlns:xlink="http://www.w3.org/1999/xlink" width="344.129" height="91.823" viewBox="0 0 344.129 91.823">
  <defs>
    <clipPath id="clip-path">
      <rect x="-4" width="105.129" height="91.823" fill="none"/>
    </clipPath>
    <clipPath id="clip-path-2">
      <rect x="93" width="238.129" height="91.823" fill="none"/>
    </clipPath>
  </defs>
  <g id="Grupo_de_desplazamiento_3" data-name="Grupo de desplazamiento 3" transform="translate(4)" clip-path="url(#clip-path)" style="isolation: isolate">
    <g id="Capa_2" data-name="Capa 2">
      <g id="Capa_1" data-name="Capa 1">
        <path id="Trazado_38" data-name="Trazado 38" d="M262.8,148.087v-19.9L255.021,143h-3.29l-7.775-14.819v19.9h-5.9V117.76h6.326l8.971,17.258,9.052-17.258h6.283v30.327Z" transform="translate(-135.684 -67.118)" fill="#fcd330"/>
        <path id="Trazado_39" data-name="Trazado 39" d="M345.072,142.918v5.161H324V117.76h20.672v5.161H329.887v7.311H342.66v4.786H329.887v7.9Z" transform="translate(-184.666 -67.118)" fill="#fcd330"/>
        <path id="Trazado_40" data-name="Trazado 40" d="M383.68,148.086V117.76h13.413a8.794,8.794,0,0,1,3.87.86,9.891,9.891,0,0,1,3.079,2.309,10.636,10.636,0,0,1,2,3.247,9.892,9.892,0,0,1,.705,3.673,10.42,10.42,0,0,1-.662,3.694,9.116,9.116,0,0,1-1.9,3.1,8.6,8.6,0,0,1-2.9,2.051l6.919,11.4h-6.5l-6.236-10.166h-5.9v10.166Zm5.9-15.335h7.392a3.118,3.118,0,0,0,1.965-.662,4.636,4.636,0,0,0,1.363-1.772,5.8,5.8,0,0,0,.516-2.477,5.234,5.234,0,0,0-.6-2.542,5.006,5.006,0,0,0-1.518-1.72,3.384,3.384,0,0,0-1.987-.641h-7.134Z" transform="translate(-218.681 -67.118)" fill="#fcd330"/>
        <path id="Trazado_41" data-name="Trazado 41" d="M445.07,132.392a15.417,15.417,0,0,1,1-5.444A15.829,15.829,0,0,1,449,122.079a14.105,14.105,0,0,1,4.7-3.5,14.7,14.7,0,0,1,6.322-1.29,13.8,13.8,0,0,1,7.238,1.836,11.736,11.736,0,0,1,4.55,4.786l-4.528,3.118a7.238,7.238,0,0,0-2.008-2.714,7.526,7.526,0,0,0-2.645-1.411,10.007,10.007,0,0,0-2.778-.4,7.9,7.9,0,0,0-3.87.9,8.6,8.6,0,0,0-2.757,2.348,10.015,10.015,0,0,0-1.643,3.247,12.472,12.472,0,0,0-.533,3.587,11.688,11.688,0,0,0,.641,3.87,10.549,10.549,0,0,0,1.815,3.29A8.652,8.652,0,0,0,456.32,142a7.835,7.835,0,0,0,3.612.834,9.233,9.233,0,0,0,2.86-.469,8.136,8.136,0,0,0,2.692-1.5,6.781,6.781,0,0,0,1.922-2.649L472.236,141a9.031,9.031,0,0,1-2.929,3.845,14.531,14.531,0,0,1-4.55,2.391,16.2,16.2,0,0,1-5,.813,13.086,13.086,0,0,1-5.939-1.346,14.845,14.845,0,0,1-4.632-3.587,17.133,17.133,0,0,1-3.036-5.04,15.581,15.581,0,0,1-1.084-5.681Z" transform="translate(-253.67 -66.844)" fill="#fcd330"/>
        <path id="Trazado_42" data-name="Trazado 42" d="M524.427,117.76h1.879l12.815,30.327h-2.3l-4.137-10.011H518.028l-4.146,10.011H511.53Zm7.517,18.539-6.571-15.89-6.6,15.912Z" transform="translate(-291.549 -67.118)" fill="#fcd330"/>
        <path id="Trazado_43" data-name="Trazado 43" d="M596.512,119.725H585.4v28.383h-2.18V119.725h-11.1V117.76h24.392Z" transform="translate(-326.083 -67.118)" fill="#fcd330"/>
        <path id="Trazado_44" data-name="Trazado 44" d="M656.689,119.725h-11.1v28.383h-2.176V119.725H632.31V117.76h24.379Z" transform="translate(-360.389 -67.118)" fill="#fcd330"/>
        <path id="Trazado_45" data-name="Trazado 45" d="M706.488,148a12.712,12.712,0,0,1-5.767-1.29,14.389,14.389,0,0,1-4.485-3.479,16.342,16.342,0,0,1-3.926-10.618,15.912,15.912,0,0,1,4.077-10.7,14.786,14.786,0,0,1,4.528-3.419,12.669,12.669,0,0,1,5.616-1.26,12.51,12.51,0,0,1,5.788,1.325,14.346,14.346,0,0,1,4.464,3.544,16.679,16.679,0,0,1,2.916,4.967,15.692,15.692,0,0,1,1.015,5.543,16.036,16.036,0,0,1-1.066,5.831,15.777,15.777,0,0,1-3.01,4.911,14.417,14.417,0,0,1-4.524,3.4A12.849,12.849,0,0,1,706.488,148Zm-12-15.387a14.357,14.357,0,0,0,3.4,9.269,12.121,12.121,0,0,0,3.8,2.991,10.609,10.609,0,0,0,4.847,1.11,10.5,10.5,0,0,0,4.915-1.153,12.1,12.1,0,0,0,3.8-3.075,14.032,14.032,0,0,0,2.413-4.3,14.565,14.565,0,0,0,.834-4.842,14.4,14.4,0,0,0-.86-5,13.7,13.7,0,0,0-2.5-4.27,12.418,12.418,0,0,0-3.823-3.01,10.424,10.424,0,0,0-4.765-1.11,10.571,10.571,0,0,0-4.954,1.153,11.872,11.872,0,0,0-3.78,3.075,14.914,14.914,0,0,0-2.434,4.3A13.854,13.854,0,0,0,694.486,132.617Z" transform="translate(-394.586 -66.82)" fill="#fcd330"/>
        <path id="Trazado_46" data-name="Trazado 46" d="M25.24,126H13.5l.86,8.966h11.4Z" transform="translate(-7.694 -71.814)" fill="#fcd330"/>
        <path id="Trazado_47" data-name="Trazado 47" d="M171.53,134.945h11.383l.86-8.945H172.042Z" transform="translate(-97.764 -71.814)" fill="#fcd330"/>
        <path id="Trazado_48" data-name="Trazado 48" d="M131.88,168.276h10.841l.516-8.966H132.056Z" transform="translate(-75.166 -90.8)" fill="#fcd330"/>
        <path id="Trazado_49" data-name="Trazado 49" d="M66.421,159.31H55.24l.512,8.966H66.593Z" transform="translate(-31.484 -90.8)" fill="#fcd330"/>
        <path id="Trazado_50" data-name="Trazado 50" d="M169.63,168.276h10.85l.86-8.966H170.159Z" transform="translate(-96.682 -90.8)" fill="#fcd330"/>
        <path id="Trazado_51" data-name="Trazado 51" d="M27.891,159.31H16.71l.86,8.966H28.4Z" transform="translate(-9.524 -90.8)" fill="#fcd330"/>
        <path id="Trazado_52" data-name="Trazado 52" d="M57.14,192.67l.516,8.966H67.947l-.168-8.966Z" transform="translate(-32.567 -109.813)" fill="#fcd330"/>
        <path id="Trazado_53" data-name="Trazado 53" d="M19.85,192.67v.039a9.822,9.822,0,0,0,9.818,8.928H31.01L30.5,192.67Z" transform="translate(-11.314 -109.813)" fill="#fcd330"/>
        <path id="Trazado_54" data-name="Trazado 54" d="M167.72,201.636h1.337a9.818,9.818,0,0,0,9.818-8.928v-.039H168.232Z" transform="translate(-95.593 -109.813)" fill="#fcd330"/>
        <path id="Trazado_55" data-name="Trazado 55" d="M131.25,201.636h10.3l.512-8.966H131.422Z" transform="translate(-74.807 -109.813)" fill="#fcd330"/>
        <path id="Trazado_56" data-name="Trazado 56" d="M94.562,201.636h10.3l.168-8.966H94.39Z" transform="translate(-53.798 -109.813)" fill="#fcd330"/>
        <path id="Trazado_57" data-name="Trazado 57" d="M65.229,133.741,57.489,126H53.33l.512,8.966H65.229Z" transform="translate(-30.396 -71.814)" fill="#fcd330"/>
        <path id="Trazado_58" data-name="Trazado 58" d="M132.57,133.741v1.208h11.366l.512-8.949h-4.116Z" transform="translate(-75.559 -71.814)" fill="#fcd330"/>
        <path id="Trazado_59" data-name="Trazado 59" d="M103.156,160.06a5.384,5.384,0,0,1-7.607,0l-.71-.71H93.76l.168,8.966h10.846l.172-8.966h-1.084Z" transform="translate(-53.439 -90.822)" fill="#fcd330"/>
        <path id="Trazado_60" data-name="Trazado 60" d="M97.853,88.41H43.07L70.46,115.8Z" transform="translate(-24.548 -50.39)" fill="#fcd330"/>
        <path id="Trazado_61" data-name="Trazado 61" d="M2.692,88.41A2.692,2.692,0,0,0,0,91.1v5.38A2.688,2.688,0,0,0,2.692,99.17H21.67L10.919,88.419Z" transform="translate(0 -50.39)" fill="#fcd330"/>
        <path id="Trazado_62" data-name="Trazado 62" d="M182.124,88.41H173.9L163.15,99.161h18.982a2.688,2.688,0,0,0,2.688-2.688V91.1a2.688,2.688,0,0,0-2.7-2.692Z" transform="translate(-92.988 -50.39)" fill="#fcd330"/>
        <path id="Trazado_63" data-name="Trazado 63" d="M104.14,4.485A4.49,4.49,0,0,0,99.654,0H92.481A4.485,4.485,0,0,0,88,4.485V32.64h16.14Z" transform="translate(-50.156)" fill="#fcd330"/>
      </g>
    </g>
  </g>
  <g id="Grupo_de_desplazamiento_4" data-name="Grupo de desplazamiento 4" transform="translate(13)" clip-path="url(#clip-path-2)" style="isolation: isolate">
    <g id="Capa_2-2" data-name="Capa 2">
      <g id="Capa_1-2" data-name="Capa 1">
        <path id="Trazado_38-2" data-name="Trazado 38" d="M262.8,148.087v-19.9L255.021,143h-3.29l-7.775-14.819v19.9h-5.9V117.76h6.326l8.971,17.258,9.052-17.258h6.283v30.327Z" transform="translate(-135.684 -67.118)" fill="#fff"/>
        <path id="Trazado_39-2" data-name="Trazado 39" d="M345.072,142.918v5.161H324V117.76h20.672v5.161H329.887v7.311H342.66v4.786H329.887v7.9Z" transform="translate(-184.666 -67.118)" fill="#fff"/>
        <path id="Trazado_40-2" data-name="Trazado 40" d="M383.68,148.086V117.76h13.413a8.794,8.794,0,0,1,3.87.86,9.891,9.891,0,0,1,3.079,2.309,10.636,10.636,0,0,1,2,3.247,9.892,9.892,0,0,1,.705,3.673,10.42,10.42,0,0,1-.662,3.694,9.116,9.116,0,0,1-1.9,3.1,8.6,8.6,0,0,1-2.9,2.051l6.919,11.4h-6.5l-6.236-10.166h-5.9v10.166Zm5.9-15.335h7.392a3.118,3.118,0,0,0,1.965-.662,4.636,4.636,0,0,0,1.363-1.772,5.8,5.8,0,0,0,.516-2.477,5.234,5.234,0,0,0-.6-2.542,5.006,5.006,0,0,0-1.518-1.72,3.384,3.384,0,0,0-1.987-.641h-7.134Z" transform="translate(-218.681 -67.118)" fill="#fff"/>
        <path id="Trazado_41-2" data-name="Trazado 41" d="M445.07,132.392a15.417,15.417,0,0,1,1-5.444A15.829,15.829,0,0,1,449,122.079a14.105,14.105,0,0,1,4.7-3.5,14.7,14.7,0,0,1,6.322-1.29,13.8,13.8,0,0,1,7.238,1.836,11.736,11.736,0,0,1,4.55,4.786l-4.528,3.118a7.238,7.238,0,0,0-2.008-2.714,7.526,7.526,0,0,0-2.645-1.411,10.007,10.007,0,0,0-2.778-.4,7.9,7.9,0,0,0-3.87.9,8.6,8.6,0,0,0-2.757,2.348,10.015,10.015,0,0,0-1.643,3.247,12.472,12.472,0,0,0-.533,3.587,11.688,11.688,0,0,0,.641,3.87,10.549,10.549,0,0,0,1.815,3.29A8.652,8.652,0,0,0,456.32,142a7.835,7.835,0,0,0,3.612.834,9.233,9.233,0,0,0,2.86-.469,8.136,8.136,0,0,0,2.692-1.5,6.781,6.781,0,0,0,1.922-2.649L472.236,141a9.031,9.031,0,0,1-2.929,3.845,14.531,14.531,0,0,1-4.55,2.391,16.2,16.2,0,0,1-5,.813,13.086,13.086,0,0,1-5.939-1.346,14.845,14.845,0,0,1-4.632-3.587,17.133,17.133,0,0,1-3.036-5.04,15.581,15.581,0,0,1-1.084-5.681Z" transform="translate(-253.67 -66.844)" fill="#fff"/>
        <path id="Trazado_42-2" data-name="Trazado 42" d="M524.427,117.76h1.879l12.815,30.327h-2.3l-4.137-10.011H518.028l-4.146,10.011H511.53Zm7.517,18.539-6.571-15.89-6.6,15.912Z" transform="translate(-291.549 -67.118)" fill="#fff"/>
        <path id="Trazado_43-2" data-name="Trazado 43" d="M596.512,119.725H585.4v28.383h-2.18V119.725h-11.1V117.76h24.392Z" transform="translate(-326.083 -67.118)" fill="#fff"/>
        <path id="Trazado_44-2" data-name="Trazado 44" d="M656.689,119.725h-11.1v28.383h-2.176V119.725H632.31V117.76h24.379Z" transform="translate(-360.389 -67.118)" fill="#fff"/>
        <path id="Trazado_45-2" data-name="Trazado 45" d="M706.488,148a12.712,12.712,0,0,1-5.767-1.29,14.389,14.389,0,0,1-4.485-3.479,16.342,16.342,0,0,1-3.926-10.618,15.912,15.912,0,0,1,4.077-10.7,14.786,14.786,0,0,1,4.528-3.419,12.669,12.669,0,0,1,5.616-1.26,12.51,12.51,0,0,1,5.788,1.325,14.346,14.346,0,0,1,4.464,3.544,16.679,16.679,0,0,1,2.916,4.967,15.692,15.692,0,0,1,1.015,5.543,16.036,16.036,0,0,1-1.066,5.831,15.777,15.777,0,0,1-3.01,4.911,14.417,14.417,0,0,1-4.524,3.4A12.849,12.849,0,0,1,706.488,148Zm-12-15.387a14.357,14.357,0,0,0,3.4,9.269,12.121,12.121,0,0,0,3.8,2.991,10.609,10.609,0,0,0,4.847,1.11,10.5,10.5,0,0,0,4.915-1.153,12.1,12.1,0,0,0,3.8-3.075,14.032,14.032,0,0,0,2.413-4.3,14.565,14.565,0,0,0,.834-4.842,14.4,14.4,0,0,0-.86-5,13.7,13.7,0,0,0-2.5-4.27,12.418,12.418,0,0,0-3.823-3.01,10.424,10.424,0,0,0-4.765-1.11,10.571,10.571,0,0,0-4.954,1.153,11.872,11.872,0,0,0-3.78,3.075,14.914,14.914,0,0,0-2.434,4.3A13.854,13.854,0,0,0,694.486,132.617Z" transform="translate(-394.586 -66.82)" fill="#fff"/>
        <path id="Trazado_46-2" data-name="Trazado 46" d="M25.24,126H13.5l.86,8.966h11.4Z" transform="translate(-7.694 -71.814)" fill="#fff"/>
        <path id="Trazado_47-2" data-name="Trazado 47" d="M171.53,134.945h11.383l.86-8.945H172.042Z" transform="translate(-97.764 -71.814)" fill="#fff"/>
        <path id="Trazado_48-2" data-name="Trazado 48" d="M131.88,168.276h10.841l.516-8.966H132.056Z" transform="translate(-75.166 -90.8)" fill="#fff"/>
        <path id="Trazado_49-2" data-name="Trazado 49" d="M66.421,159.31H55.24l.512,8.966H66.593Z" transform="translate(-31.484 -90.8)" fill="#fff"/>
        <path id="Trazado_50-2" data-name="Trazado 50" d="M169.63,168.276h10.85l.86-8.966H170.159Z" transform="translate(-96.682 -90.8)" fill="#fff"/>
        <path id="Trazado_51-2" data-name="Trazado 51" d="M27.891,159.31H16.71l.86,8.966H28.4Z" transform="translate(-9.524 -90.8)" fill="#fff"/>
        <path id="Trazado_52-2" data-name="Trazado 52" d="M57.14,192.67l.516,8.966H67.947l-.168-8.966Z" transform="translate(-32.567 -109.813)" fill="#fff"/>
        <path id="Trazado_53-2" data-name="Trazado 53" d="M19.85,192.67v.039a9.822,9.822,0,0,0,9.818,8.928H31.01L30.5,192.67Z" transform="translate(-11.314 -109.813)" fill="#fff"/>
        <path id="Trazado_54-2" data-name="Trazado 54" d="M167.72,201.636h1.337a9.818,9.818,0,0,0,9.818-8.928v-.039H168.232Z" transform="translate(-95.593 -109.813)" fill="#fff"/>
        <path id="Trazado_55-2" data-name="Trazado 55" d="M131.25,201.636h10.3l.512-8.966H131.422Z" transform="translate(-74.807 -109.813)" fill="#fff"/>
        <path id="Trazado_56-2" data-name="Trazado 56" d="M94.562,201.636h10.3l.168-8.966H94.39Z" transform="translate(-53.798 -109.813)" fill="#fff"/>
        <path id="Trazado_57-2" data-name="Trazado 57" d="M65.229,133.741,57.489,126H53.33l.512,8.966H65.229Z" transform="translate(-30.396 -71.814)" fill="#fff"/>
        <path id="Trazado_58-2" data-name="Trazado 58" d="M132.57,133.741v1.208h11.366l.512-8.949h-4.116Z" transform="translate(-75.559 -71.814)" fill="#fff"/>
        <path id="Trazado_59-2" data-name="Trazado 59" d="M103.156,160.06a5.384,5.384,0,0,1-7.607,0l-.71-.71H93.76l.168,8.966h10.846l.172-8.966h-1.084Z" transform="translate(-53.439 -90.822)" fill="#fff"/>
        <path id="Trazado_60-2" data-name="Trazado 60" d="M97.853,88.41H43.07L70.46,115.8Z" transform="translate(-24.548 -50.39)" fill="#fff"/>
        <path id="Trazado_61-2" data-name="Trazado 61" d="M2.692,88.41A2.692,2.692,0,0,0,0,91.1v5.38A2.688,2.688,0,0,0,2.692,99.17H21.67L10.919,88.419Z" transform="translate(0 -50.39)" fill="#fff"/>
        <path id="Trazado_62-2" data-name="Trazado 62" d="M182.124,88.41H173.9L163.15,99.161h18.982a2.688,2.688,0,0,0,2.688-2.688V91.1a2.688,2.688,0,0,0-2.7-2.692Z" transform="translate(-92.988 -50.39)" fill="#fff"/>
        <path id="Trazado_63-2" data-name="Trazado 63" d="M104.14,4.485A4.49,4.49,0,0,0,99.654,0H92.481A4.485,4.485,0,0,0,88,4.485V32.64h16.14Z" transform="translate(-50.156)" fill="#fff"/>
      </g>
    </g>
  </g>
</svg>
