<svg xmlns="https://www.w3.org/2000/svg" width="514.195" height="144.774" viewBox="0 0 514.195 144.774"><defs><style>.a{fill:#2fafff;}</style></defs><path class="a" d="M277.061,165.575V134.2L264.8,157.561h-5.187L247.356,134.2v31.379h-9.3V117.76h9.974l14.144,27.21,14.273-27.21h9.906v47.815Z" transform="translate(-76.647 -37.915)"/><path class="a" d="M357.224,157.425v8.136H324v-47.8h32.593V125.9H333.282v11.527H353.42v7.547H333.282v12.455Z" transform="translate(-104.317 -37.915)"/><path class="a" d="M383.68,165.575V117.76h21.148a13.866,13.866,0,0,1,6.1,1.356,15.6,15.6,0,0,1,4.855,3.641,16.768,16.768,0,0,1,3.16,5.119,15.6,15.6,0,0,1,1.112,5.79,16.429,16.429,0,0,1-1.044,5.824,14.374,14.374,0,0,1-3,4.882,13.561,13.561,0,0,1-4.577,3.234l10.91,17.981H412.1l-9.832-16.029h-9.3v16.029Zm9.3-24.179h11.655a4.916,4.916,0,0,0,3.1-1.044,7.31,7.31,0,0,0,2.149-2.794,9.146,9.146,0,0,0,.814-3.905,8.252,8.252,0,0,0-.942-4.007,7.893,7.893,0,0,0-2.393-2.712,5.336,5.336,0,0,0-3.132-1.01H392.976Z" transform="translate(-123.532 -37.914)"/><path class="a" d="M445.07,141.106a24.307,24.307,0,0,1,1.58-8.584,24.958,24.958,0,0,1,4.617-7.675,22.24,22.24,0,0,1,7.411-5.526,23.175,23.175,0,0,1,9.967-2.034,21.758,21.758,0,0,1,11.411,2.9,18.5,18.5,0,0,1,7.174,7.547l-7.14,4.916a11.411,11.411,0,0,0-3.166-4.278,11.866,11.866,0,0,0-4.17-2.224,15.778,15.778,0,0,0-4.38-.637,12.456,12.456,0,0,0-6.1,1.417,13.561,13.561,0,0,0-4.346,3.7,15.791,15.791,0,0,0-2.59,5.119,19.664,19.664,0,0,0-.841,5.655,18.428,18.428,0,0,0,1.01,6.1,16.632,16.632,0,0,0,2.861,5.187,13.641,13.641,0,0,0,4.441,3.566,12.353,12.353,0,0,0,5.7,1.315,14.558,14.558,0,0,0,4.509-.739,12.829,12.829,0,0,0,4.245-2.36,10.692,10.692,0,0,0,3.031-4.177l7.614,4.38a14.239,14.239,0,0,1-4.617,6.062,22.911,22.911,0,0,1-7.174,3.77,25.534,25.534,0,0,1-7.879,1.281,20.632,20.632,0,0,1-9.364-2.122,23.406,23.406,0,0,1-7.3-5.655,27.012,27.012,0,0,1-4.787-7.947,24.566,24.566,0,0,1-1.709-8.957Z" transform="translate(-143.297 -37.76)"/><path class="a" d="M531.864,117.76h2.963l20.205,47.815H551.4l-6.523-15.785h-23.1l-6.536,15.785H511.53Zm11.852,29.23-10.36-25.053-10.4,25.087Z" transform="translate(-164.695 -37.915)"/><path class="a" d="M610.578,120.859h-17.52v44.75H589.62v-44.75h-17.5v-3.1h38.458Z" transform="translate(-184.203 -37.915)"/><path class="a" d="M670.748,120.859H653.255v44.75h-3.431v-44.75H632.31v-3.1h38.438Z" transform="translate(-203.582 -37.915)"/><path class="a" d="M714.665,165.746a20.043,20.043,0,0,1-9.093-2.034,22.687,22.687,0,0,1-7.072-5.485,25.766,25.766,0,0,1-6.19-16.741,25.087,25.087,0,0,1,6.428-16.869,23.312,23.312,0,0,1,7.14-5.39,19.974,19.974,0,0,1,8.855-1.987,19.724,19.724,0,0,1,9.126,2.088,22.619,22.619,0,0,1,7.038,5.587,26.3,26.3,0,0,1,4.6,7.831,24.741,24.741,0,0,1,1.6,8.74,25.283,25.283,0,0,1-1.682,9.194,24.872,24.872,0,0,1-4.746,7.743,22.73,22.73,0,0,1-7.133,5.356A20.26,20.26,0,0,1,714.665,165.746Zm-18.924-24.26a22.636,22.636,0,0,0,5.353,14.615,19.112,19.112,0,0,0,6,4.716,16.727,16.727,0,0,0,7.641,1.749,16.551,16.551,0,0,0,7.75-1.817,19.073,19.073,0,0,0,5.994-4.848,22.125,22.125,0,0,0,3.8-6.78,22.967,22.967,0,0,0,1.315-7.635,22.7,22.7,0,0,0-1.356-7.879,21.593,21.593,0,0,0-3.939-6.733,19.581,19.581,0,0,0-6.028-4.746,16.436,16.436,0,0,0-7.513-1.749,16.666,16.666,0,0,0-7.811,1.817,18.72,18.72,0,0,0-5.96,4.848,23.515,23.515,0,0,0-3.838,6.78,21.841,21.841,0,0,0-1.41,7.662Z" transform="translate(-222.9 -37.746)"/><path class="a" d="M32.01,126H13.5l1.356,14.137H32.824Z" transform="translate(-4.347 -40.568)"/><path class="a" d="M171.53,140.1h17.948l1.356-14.1h-18.5Z" transform="translate(-55.227 -40.568)"/><path class="a" d="M131.88,173.447h17.093l.814-14.137H132.158Z" transform="translate(-42.461 -51.292)"/><path class="a" d="M72.869,159.31H55.24l.807,14.137H73.14Z" transform="translate(-17.785 -51.292)"/><path class="a" d="M169.63,173.447h17.107l1.356-14.137H170.464Z" transform="translate(-54.615 -51.292)"/><path class="a" d="M34.339,159.31H16.71l1.356,14.137h17.08Z" transform="translate(-5.38 -51.292)"/><path class="a" d="M57.14,192.67l.814,14.137H74.179l-.264-14.137Z" transform="translate(-18.397 -62.033)"/><path class="a" d="M19.85,192.67v.061a15.486,15.486,0,0,0,15.48,14.076h2.115l-.807-14.137Z" transform="translate(-6.391 -62.033)"/><path class="a" d="M167.72,206.807h2.109a15.48,15.48,0,0,0,15.48-14.076v-.061H168.527Z" transform="translate(-54 -62.033)"/><path class="a" d="M131.25,206.807h16.232l.807-14.137H131.521Z" transform="translate(-42.258 -62.033)"/><path class="a" d="M94.661,206.807H110.9l.264-14.137H94.39Z" transform="translate(-30.39 -62.033)"/><path class="a" d="M72.091,138.2,59.887,126H53.33l.807,14.137H72.091Z" transform="translate(-17.17 -40.568)"/><path class="a" d="M132.57,138.2v1.905h17.92L151.3,126h-6.489Z" transform="translate(-42.683 -40.568)"/><path class="a" d="M108.575,160.469a8.489,8.489,0,0,1-11.994,0l-1.119-1.119h-1.7l.264,14.137h17.1l.271-14.137h-1.709Z" transform="translate(-30.187 -51.305)"/><path class="a" d="M129.445,88.41H43.07L86.254,131.6Z" transform="translate(-13.867 -28.465)"/><path class="a" d="M4.244,88.41A4.244,4.244,0,0,0,0,92.654v8.482a4.238,4.238,0,0,0,4.244,4.238H34.166L17.215,88.424Z" transform="translate(0 -28.465)"/><path class="a" d="M193.065,88.41H180.1L163.15,105.361h29.928a4.238,4.238,0,0,0,4.238-4.238V92.654a4.238,4.238,0,0,0-4.251-4.244Z" transform="translate(-52.529 -28.465)"/><path class="a" d="M113.447,7.072A7.079,7.079,0,0,0,106.375,0H95.065A7.072,7.072,0,0,0,88,7.072V51.463h25.447Z" transform="translate(-28.333)"/></svg>