<svg xmlns="https://www.w3.org/2000/svg" xmlns:xlink="https://www.w3.org/1999/xlink" width="43.279" height="43.279" viewBox="0 0 43.279 43.279"><defs><style>.a{fill:none;}.b{clip-path:url(#a);}.c{fill:#eceff1;}.d{fill:#4caf50;}.e{fill:#fafafa;}</style><clipPath id="a"><rect class="a" width="43.279" height="43.279"/></clipPath></defs><g class="b"><path class="c" d="M37,6.22A21.9,21.9,0,0,0,21.72,0C5.184,0-5.2,17.916,3.058,32.167L0,43.279,11.424,40.3a22.653,22.653,0,0,0,10.308,2.609c19.174,0,28.719-23.2,15.245-36.619Z" transform="translate(0)"/><path class="d" d="M20.021,37.587l-.011,0h-.029a18.142,18.142,0,0,1-9.749-2.87L3.48,36.471,5.29,29.908l-.43-.675a17.767,17.767,0,0,1-2.729-9.47C2.13,3.932,21.476-3.984,32.671,7.205,43.839,18.278,36,37.587,20.021,37.587Z" transform="translate(1.74 1.606)"/><path class="e" d="M26.616,20.8l-.016.136c-.539-.273-3.163-1.575-3.652-1.755-1.1-.412-.788-.065-2.894,2.384-.313.354-.625.382-1.156.136a14.484,14.484,0,0,1-4.3-2.7,16.451,16.451,0,0,1-2.971-3.761c-.524-.919.573-1.05,1.572-2.969a1.012,1.012,0,0,0-.045-.952c-.134-.273-1.2-2.943-1.65-4.008-.43-1.061-.872-.927-1.2-.927a2.637,2.637,0,0,0-2.449.625C4.961,10.24,5.689,13.565,8.161,17.1c4.858,6.453,7.447,7.642,12.179,9.291a7.3,7.3,0,0,0,3.365.22c1.027-.165,3.163-1.31,3.609-2.591a4.56,4.56,0,0,0,.322-2.589c-.132-.245-.483-.382-1.02-.627Z" transform="translate(4.882 5.027)"/></g></svg>